<mxfile host="app.diagrams.net" modified="2021-09-29T07:50:27.039Z" agent="5.0 (Macintosh; Intel Mac OS X 10_15_7) AppleWebKit/537.36 (KHTML, like Gecko) Chrome/94.0.4606.61 Safari/537.36" etag="w7l7jEWO2O7jDBcpsOxD" version="15.3.7" type="github">
  <diagram id="Dk4Bw2Y07LQWg1g-n0yl" name="Page-1">
    <mxGraphModel dx="1678" dy="805" grid="1" gridSize="10" guides="1" tooltips="1" connect="1" arrows="1" fold="1" page="1" pageScale="1" pageWidth="827" pageHeight="1169" math="0" shadow="0">
      <root>
        <mxCell id="0" />
        <mxCell id="1" parent="0" />
        <mxCell id="kwGojhi1YJQt-w-mMYuk-6" value="" style="edgeStyle=orthogonalEdgeStyle;rounded=0;orthogonalLoop=1;jettySize=auto;html=1;" edge="1" parent="1" source="kwGojhi1YJQt-w-mMYuk-1" target="kwGojhi1YJQt-w-mMYuk-2">
          <mxGeometry relative="1" as="geometry" />
        </mxCell>
        <mxCell id="kwGojhi1YJQt-w-mMYuk-1" value="APP" style="rounded=0;whiteSpace=wrap;html=1;" vertex="1" parent="1">
          <mxGeometry x="260" y="120" width="200" height="60" as="geometry" />
        </mxCell>
        <mxCell id="kwGojhi1YJQt-w-mMYuk-2" value="SOA-Application" style="rounded=0;whiteSpace=wrap;html=1;" vertex="1" parent="1">
          <mxGeometry x="260" y="220" width="200" height="60" as="geometry" />
        </mxCell>
        <mxCell id="kwGojhi1YJQt-w-mMYuk-7" style="edgeStyle=orthogonalEdgeStyle;rounded=0;orthogonalLoop=1;jettySize=auto;html=1;exitX=0.5;exitY=0;exitDx=0;exitDy=0;startArrow=classic;startFill=1;" edge="1" parent="1" source="kwGojhi1YJQt-w-mMYuk-3" target="kwGojhi1YJQt-w-mMYuk-2">
          <mxGeometry relative="1" as="geometry" />
        </mxCell>
        <mxCell id="kwGojhi1YJQt-w-mMYuk-3" value="UIModule" style="rounded=0;whiteSpace=wrap;html=1;" vertex="1" parent="1">
          <mxGeometry x="150" y="350" width="120" height="60" as="geometry" />
        </mxCell>
        <mxCell id="kwGojhi1YJQt-w-mMYuk-10" style="edgeStyle=orthogonalEdgeStyle;rounded=0;orthogonalLoop=1;jettySize=auto;html=1;startArrow=classic;startFill=1;" edge="1" parent="1" source="kwGojhi1YJQt-w-mMYuk-4">
          <mxGeometry relative="1" as="geometry">
            <mxPoint x="360" y="280" as="targetPoint" />
          </mxGeometry>
        </mxCell>
        <mxCell id="kwGojhi1YJQt-w-mMYuk-4" value="业务Module" style="rounded=0;whiteSpace=wrap;html=1;" vertex="1" parent="1">
          <mxGeometry x="300" y="350" width="120" height="60" as="geometry" />
        </mxCell>
        <mxCell id="kwGojhi1YJQt-w-mMYuk-9" style="edgeStyle=orthogonalEdgeStyle;rounded=0;orthogonalLoop=1;jettySize=auto;html=1;startArrow=classic;startFill=1;" edge="1" parent="1" source="kwGojhi1YJQt-w-mMYuk-5">
          <mxGeometry relative="1" as="geometry">
            <mxPoint x="360" y="280" as="targetPoint" />
            <Array as="points">
              <mxPoint x="510" y="320" />
              <mxPoint x="360" y="320" />
            </Array>
          </mxGeometry>
        </mxCell>
        <mxCell id="kwGojhi1YJQt-w-mMYuk-5" value="其他Module" style="rounded=0;whiteSpace=wrap;html=1;" vertex="1" parent="1">
          <mxGeometry x="450" y="350" width="120" height="60" as="geometry" />
        </mxCell>
        <mxCell id="kwGojhi1YJQt-w-mMYuk-11" value="生命周期&lt;br&gt;消息通知&lt;br&gt;路由管理" style="whiteSpace=wrap;html=1;shape=partialRectangle;top=0;left=0;bottom=1;right=0;points=[[0,1],[1,1]];fillColor=none;align=center;verticalAlign=bottom;routingCenterY=0.5;snapToPoint=1;recursiveResize=0;autosize=1;treeFolding=1;treeMoving=1;newEdgeStyle={&quot;edgeStyle&quot;:&quot;entityRelationEdgeStyle&quot;,&quot;startArrow&quot;:&quot;none&quot;,&quot;endArrow&quot;:&quot;none&quot;,&quot;segment&quot;:10,&quot;curved&quot;:1};" vertex="1" collapsed="1" parent="1">
          <mxGeometry x="490" y="230" width="80" height="50" as="geometry" />
        </mxCell>
        <mxCell id="kwGojhi1YJQt-w-mMYuk-12" value="" style="edgeStyle=entityRelationEdgeStyle;startArrow=none;endArrow=none;segment=10;curved=1;" edge="1" parent="1">
          <mxGeometry relative="1" as="geometry">
            <mxPoint x="380" y="310" as="sourcePoint" />
            <mxPoint x="490" y="280" as="targetPoint" />
          </mxGeometry>
        </mxCell>
      </root>
    </mxGraphModel>
  </diagram>
</mxfile>
